# xmcd
#
# Track frame offsets:
#	150
#	21787
#	32723
#	46774
#	60267
#	76037
#	87407
#	102551
#	113810
#	128416
#	140136
#	154211
#	166100
#	181325
#	196469
#	205112
#	217333
#	231802
#	243394
#	255551
#	267605
#	281384
#	292608
#
# Disc length: 4040 seconds
#
# Revision: 0
# Processed by: cddbd v1.4PL0 Copyright (c) Steve Scherf et al.
# Submitted via: dBpowerAMP V4.0
#
DISCID=3f0fc617
DTITLE=Louis Armstrong and Ella Fitzgerald - L.A. and E.F.
DYEAR=1900
DGENRE=Blues
TTITLE0=St. James infirmary
TTITLE1=Goody goody
TTITLE2=You'll never know
TTITLE3=We can't go on this way
TTITLE4=Mac the knife
TTITLE5=That old black magic
TTITLE6=Blueberry Hill
TTITLE7=A tisket a tasket
TTITLE8=Whwn the saints go marchin'in
TTITLE9=Come back sweet papa
TTITLE10=Cornet chop sucy
TTITLE11=Muscrat ramble
TTITLE12=On the sunny side of the street
TTITLE13=New Orleans alone
TTITLE14=A sllepy time down south
TTITLE15=C'est si bon
TTITLE16=How high the moon
TTITLE17=It's only a paper moon
TTITLE18=Sing, song, swing
TTITLE19=Baby it's cold outside
TTITLE20=You'll have to swing it
TTITLE21=Taking a change on love
TTITLE22=Flying home
EXTD=
EXTT0=
EXTT1=
EXTT2=
EXTT3=
EXTT4=
EXTT5=
EXTT6=
EXTT7=
EXTT8=
EXTT9=
EXTT10=
EXTT11=
EXTT12=
EXTT13=
EXTT14=
EXTT15=
EXTT16=
EXTT17=
EXTT18=
EXTT19=
EXTT20=
EXTT21=
EXTT22=
PLAYORDER=
